<?xml version="1.0" encoding="UTF-8"?>
<!DOCTYPE svg PUBLIC "-//W3C//DTD SVG 1.1//EN" "http://www.w3.org/Graphics/SVG/1.1/DTD/svg11.dtd">
<svg version="1.1" xmlns="http://www.w3.org/2000/svg" xmlns:xlink="http://www.w3.org/1999/xlink" x="0" y="0" width="400" height="200" viewBox="0, 0, 200, 100">
  <g id="Layer_1">
    <path d="M37.5,75 C23.693,75 12.5,63.807 12.5,50 C12.5,36.193 23.693,25 37.5,25 C51.307,25 62.5,36.193 62.5,50 C62.5,63.807 51.307,75 37.5,75 z" fill="#D16666"/>
    <path d="M100,75 C86.193,75 75,63.807 75,50 C75,36.193 86.193,25 100,25 C113.807,25 125,36.193 125,50 C125,63.807 113.807,75 100,75 z" fill="#3BC66E"/>
    <path d="M162.5,75 C148.693,75 137.5,63.807 137.5,50 C137.5,36.193 148.693,25 162.5,25 C176.307,25 187.5,36.193 187.5,50 C187.5,63.807 176.307,75 162.5,75 z" fill="#357DED"/>
  </g>
</svg>
