<?xml version="1.0" encoding="UTF-8"?>
<!DOCTYPE svg PUBLIC "-//W3C//DTD SVG 1.1//EN" "http://www.w3.org/Graphics/SVG/1.1/DTD/svg11.dtd">
<svg version="1.1" xmlns="http://www.w3.org/2000/svg" xmlns:xlink="http://www.w3.org/1999/xlink" x="0" y="0" width="200" height="200" viewBox="0, 0, 100, 100">
  <g id="Layer_1">
    <path d="M50,95 C25.147,95 5,74.853 5,50 C5,25.147 25.147,5 50,5 C74.853,5 95,25.147 95,50 C95,74.853 74.853,95 50,95 z" fill="#FFF455"/>
    <path d="M50,5 C68.356,5.166 86.817,17.086 92.416,35.251 L7.584,35.251 C13.365,16.884 31.512,5.471 50,5 z" fill="#D16666"/>
    <path d="M92.416,64.685 C86.634,83.09 68.488,94.528 50,95 C31.643,94.833 13.184,82.888 7.584,64.685 L92.416,64.685 z" fill="#D16666"/>
  </g>
</svg>
