<?xml version="1.0" encoding="UTF-8"?>
<!DOCTYPE svg PUBLIC "-//W3C//DTD SVG 1.1//EN" "http://www.w3.org/Graphics/SVG/1.1/DTD/svg11.dtd">
<svg version="1.1" xmlns="http://www.w3.org/2000/svg" xmlns:xlink="http://www.w3.org/1999/xlink" x="0" y="0" width="1750" height="1000" viewBox="0, 0, 350, 200">
  <defs>
    <clipPath id="Clip_1">
      <path d="M34.12,31.489 L315.88,31.489 L315.88,128.249 L34.12,128.249 z M46.12,59.529 L37.12,59.529 Q40.63,73.299 44.59,85.179 Q48.55,97.059 52.69,106.329 L59.98,106.329 Q62.5,99.849 65.29,91.524 Q68.08,83.199 70.42,74.199 Q72.76,83.199 75.595,91.524 Q78.43,99.849 80.95,106.329 L88.24,106.329 Q92.38,97.059 96.34,85.179 Q100.3,73.299 103.81,59.529 L95.17,59.529 Q94.27,63.759 93.01,68.709 Q91.75,73.659 90.31,78.609 Q88.87,83.559 87.385,88.149 Q85.9,92.739 84.55,96.159 Q83.02,91.929 81.535,87.204 Q80.05,82.479 78.7,77.664 Q77.35,72.849 76.18,68.214 Q75.01,63.579 74.2,59.529 L67.27,59.529 Q66.37,63.579 65.155,68.214 Q63.94,72.849 62.59,77.664 Q61.24,82.479 59.755,87.204 Q58.27,91.929 56.74,96.159 Q55.39,92.739 53.86,88.149 Q52.33,83.559 50.935,78.609 Q49.54,73.659 48.28,68.709 Q47.02,63.759 46.12,59.529 z M181.93,58.539 Q176.44,58.539 172.03,59.484 Q167.62,60.429 164.65,61.509 L164.65,106.329 L173.02,106.329 L173.02,66.999 Q173.74,66.819 176.035,66.324 Q178.33,65.829 180.67,65.829 Q184.27,65.829 186.565,66.324 Q188.86,66.819 189.85,67.179 L191.29,59.889 Q190.75,59.709 189.625,59.484 Q188.5,59.259 187.15,59.034 Q185.8,58.809 184.405,58.674 Q183.01,58.539 181.93,58.539 z M260.59,36.489 L252.22,37.929 L252.22,94.089 Q252.22,100.749 255.46,103.899 Q258.7,107.049 266.44,107.229 L267.61,100.209 Q265.63,99.939 264.28,99.534 Q262.93,99.129 262.12,98.319 Q261.31,97.509 260.95,96.159 Q260.59,94.809 260.59,92.739 L260.59,36.489 z M218.92,65.829 Q222.34,65.829 225.22,66.999 Q228.1,68.169 229.63,69.429 L229.63,99.039 Q228.37,99.399 226.075,99.714 Q223.78,100.029 220.36,100.029 Q213.61,100.029 209.56,95.574 Q205.51,91.119 205.51,82.929 Q205.51,79.329 206.23,76.179 Q206.95,73.029 208.57,70.734 Q210.19,68.439 212.755,67.134 Q215.32,65.829 218.92,65.829 z M238,36.489 L229.63,37.929 L229.63,61.599 Q228.1,60.609 224.995,59.529 Q221.89,58.449 217.84,58.449 Q212.8,58.449 208.885,60.249 Q204.97,62.049 202.27,65.289 Q199.57,68.529 198.175,73.029 Q196.78,77.529 196.78,82.929 Q196.78,88.599 198.445,93.144 Q200.11,97.689 203.17,100.839 Q206.23,103.989 210.55,105.699 Q214.87,107.409 220.27,107.409 Q226.12,107.409 230.62,106.599 Q235.12,105.789 238,104.979 L238,36.489 z M130.9,65.739 Q137.02,65.739 140.575,70.374 Q144.13,75.009 144.13,82.929 Q144.13,90.849 140.575,95.484 Q137.02,100.119 130.9,100.119 Q124.78,100.119 121.225,95.484 Q117.67,90.849 117.67,82.929 Q117.67,75.009 121.225,70.374 Q124.78,65.739 130.9,65.739 z M130.9,58.359 Q126.13,58.359 122.08,60.114 Q118.03,61.869 115.105,65.109 Q112.18,68.349 110.56,72.894 Q108.94,77.439 108.94,82.929 Q108.94,88.509 110.56,93.009 Q112.18,97.509 115.105,100.749 Q118.03,103.989 122.08,105.744 Q126.13,107.499 130.9,107.499 Q135.67,107.499 139.72,105.744 Q143.77,103.989 146.695,100.749 Q149.62,97.509 151.24,93.009 Q152.86,88.509 152.86,82.929 Q152.86,77.439 151.24,72.894 Q149.62,68.349 146.695,65.109 Q143.77,61.869 139.72,60.114 Q135.67,58.359 130.9,58.359 z M280.21,59.529 L271.21,59.529 Q274.45,71.949 279.355,84.054 Q284.26,96.159 289.93,106.959 Q287.68,111.909 284.89,114.114 Q282.1,116.319 277.15,116.319 Q275.62,116.319 274.045,115.914 Q272.47,115.509 271.48,115.059 L269.95,121.809 Q270.31,121.989 271.165,122.259 Q272.02,122.529 273.055,122.754 Q274.09,122.979 275.17,123.114 Q276.25,123.249 277.24,123.249 Q280.93,123.249 283.855,122.349 Q286.78,121.449 289.12,119.559 Q291.46,117.669 293.395,114.744 Q295.33,111.819 297.13,107.769 Q301.72,97.149 305.68,84.954 Q309.64,72.759 312.88,59.529 L304.24,59.529 Q301.99,69.339 299.47,78.609 Q296.95,87.879 293.53,97.329 Q291.37,92.739 289.39,87.789 Q287.41,82.839 285.7,77.889 Q283.99,72.939 282.595,68.259 Q281.2,63.579 280.21,59.529 z"/>
    </clipPath>
    <filter id="Shadow_2">
      <feGaussianBlur in="SourceAlpha" stdDeviation="1"/>
      <feOffset dx="0" dy="2" result="offsetblur"/>
      <feFlood flood-color="#000000"/>
      <feComposite in2="offsetblur" operator="in"/>
    </filter>
    <clipPath id="Clip_3">
      <path d="M84.101,142.671 L120.101,142.671 L120.101,182.671 L84.101,182.671 z M102.101,147.671 C93.816,147.671 87.101,154.387 87.101,162.671 C87.101,170.955 93.816,177.671 102.101,177.671 C110.385,177.671 117.101,170.955 117.101,162.671 C117.101,154.387 110.385,147.671 102.101,147.671 z"/>
    </clipPath>
    <filter id="Shadow_4">
      <feGaussianBlur in="SourceAlpha" stdDeviation="1"/>
      <feOffset dx="0" dy="2" result="offsetblur"/>
      <feFlood flood-color="#000000"/>
      <feComposite in2="offsetblur" operator="in"/>
    </filter>
    <clipPath id="Clip_5">
      <path d="M157,142.671 L193,142.671 L193,182.671 L157,182.671 z M175,147.671 C166.716,147.671 160,154.387 160,162.671 C160,170.955 166.716,177.671 175,177.671 C183.284,177.671 190,170.955 190,162.671 C190,154.387 183.284,147.671 175,147.671 z"/>
    </clipPath>
    <filter id="Shadow_6">
      <feGaussianBlur in="SourceAlpha" stdDeviation="1"/>
      <feOffset dx="0" dy="2" result="offsetblur"/>
      <feFlood flood-color="#000000"/>
      <feComposite in2="offsetblur" operator="in"/>
    </filter>
    <clipPath id="Clip_7">
      <path d="M229.899,142.671 L265.899,142.671 L265.899,182.671 L229.899,182.671 z M247.899,147.671 C239.615,147.671 232.899,154.387 232.899,162.671 C232.899,170.955 239.615,177.671 247.899,177.671 C256.184,177.671 262.899,170.955 262.899,162.671 C262.899,154.387 256.184,147.671 247.899,147.671 z"/>
    </clipPath>
    <filter id="Shadow_8">
      <feGaussianBlur in="SourceAlpha" stdDeviation="1"/>
      <feOffset dx="0" dy="2" result="offsetblur"/>
      <feFlood flood-color="#000000"/>
      <feComposite in2="offsetblur" operator="in"/>
    </filter>
  </defs>
  <g id="Layer_1">
    <g>
      <path d="M280.21,59.529 Q281.2,63.579 282.595,68.259 Q283.99,72.939 285.7,77.889 Q287.41,82.839 289.39,87.789 Q291.37,92.739 293.53,97.329 Q296.95,87.879 299.47,78.609 Q301.99,69.339 304.24,59.529 L312.88,59.529 Q309.64,72.759 305.68,84.954 Q301.72,97.149 297.13,107.769 Q295.33,111.819 293.395,114.744 Q291.46,117.669 289.12,119.559 Q286.78,121.449 283.855,122.349 Q280.93,123.249 277.24,123.249 Q276.25,123.249 275.17,123.114 Q274.09,122.979 273.055,122.754 Q272.02,122.529 271.165,122.259 Q270.31,121.989 269.95,121.809 L271.48,115.059 Q272.47,115.509 274.045,115.914 Q275.62,116.319 277.15,116.319 Q282.1,116.319 284.89,114.114 Q287.68,111.909 289.93,106.959 Q284.26,96.159 279.355,84.054 Q274.45,71.949 271.21,59.529 L280.21,59.529 z M130.9,58.359 Q135.67,58.359 139.72,60.114 Q143.77,61.869 146.695,65.109 Q149.62,68.349 151.24,72.894 Q152.86,77.439 152.86,82.929 Q152.86,88.509 151.24,93.009 Q149.62,97.509 146.695,100.749 Q143.77,103.989 139.72,105.744 Q135.67,107.499 130.9,107.499 Q126.13,107.499 122.08,105.744 Q118.03,103.989 115.105,100.749 Q112.18,97.509 110.56,93.009 Q108.94,88.509 108.94,82.929 Q108.94,77.439 110.56,72.894 Q112.18,68.349 115.105,65.109 Q118.03,61.869 122.08,60.114 Q126.13,58.359 130.9,58.359 z M130.9,65.739 Q124.78,65.739 121.225,70.374 Q117.67,75.009 117.67,82.929 Q117.67,90.849 121.225,95.484 Q124.78,100.119 130.9,100.119 Q137.02,100.119 140.575,95.484 Q144.13,90.849 144.13,82.929 Q144.13,75.009 140.575,70.374 Q137.02,65.739 130.9,65.739 z M238,36.489 L238,104.979 Q235.12,105.789 230.62,106.599 Q226.12,107.409 220.27,107.409 Q214.87,107.409 210.55,105.699 Q206.23,103.989 203.17,100.839 Q200.11,97.689 198.445,93.144 Q196.78,88.599 196.78,82.929 Q196.78,77.529 198.175,73.029 Q199.57,68.529 202.27,65.289 Q204.97,62.049 208.885,60.249 Q212.8,58.449 217.84,58.449 Q221.89,58.449 224.995,59.529 Q228.1,60.609 229.63,61.599 L229.63,37.929 L238,36.489 z M218.92,65.829 Q215.32,65.829 212.755,67.134 Q210.19,68.439 208.57,70.734 Q206.95,73.029 206.23,76.179 Q205.51,79.329 205.51,82.929 Q205.51,91.119 209.56,95.574 Q213.61,100.029 220.36,100.029 Q223.78,100.029 226.075,99.714 Q228.37,99.399 229.63,99.039 L229.63,69.429 Q228.1,68.169 225.22,66.999 Q222.34,65.829 218.92,65.829 z M260.59,36.489 L260.59,92.739 Q260.59,94.809 260.95,96.159 Q261.31,97.509 262.12,98.319 Q262.93,99.129 264.28,99.534 Q265.63,99.939 267.61,100.209 L266.44,107.229 Q258.7,107.049 255.46,103.899 Q252.22,100.749 252.22,94.089 L252.22,37.929 L260.59,36.489 z M181.93,58.539 Q183.01,58.539 184.405,58.674 Q185.8,58.809 187.15,59.034 Q188.5,59.259 189.625,59.484 Q190.75,59.709 191.29,59.889 L189.85,67.179 Q188.86,66.819 186.565,66.324 Q184.27,65.829 180.67,65.829 Q178.33,65.829 176.035,66.324 Q173.74,66.819 173.02,66.999 L173.02,106.329 L164.65,106.329 L164.65,61.509 Q167.62,60.429 172.03,59.484 Q176.44,58.539 181.93,58.539 z M46.12,59.529 Q47.02,63.759 48.28,68.709 Q49.54,73.659 50.935,78.609 Q52.33,83.559 53.86,88.149 Q55.39,92.739 56.74,96.159 Q58.27,91.929 59.755,87.204 Q61.24,82.479 62.59,77.664 Q63.94,72.849 65.155,68.214 Q66.37,63.579 67.27,59.529 L74.2,59.529 Q75.01,63.579 76.18,68.214 Q77.35,72.849 78.7,77.664 Q80.05,82.479 81.535,87.204 Q83.02,91.929 84.55,96.159 Q85.9,92.739 87.385,88.149 Q88.87,83.559 90.31,78.609 Q91.75,73.659 93.01,68.709 Q94.27,63.759 95.17,59.529 L103.81,59.529 Q100.3,73.299 96.34,85.179 Q92.38,97.059 88.24,106.329 L80.95,106.329 Q78.43,99.849 75.595,91.524 Q72.76,83.199 70.42,74.199 Q68.08,83.199 65.29,91.524 Q62.5,99.849 59.98,106.329 L52.69,106.329 Q48.55,97.059 44.59,85.179 Q40.63,73.299 37.12,59.529 L46.12,59.529 z" clip-path="url(#Clip_1)" filter="url(#Shadow_2)" fill="rgba(0,0,0,0.1)"/>
      <text transform="matrix(1, 0, 0, 1, 175, 73.329)">
        <tspan x="-139.5" y="33" font-family="Ubuntu-Regular" font-size="90" fill="#FFFFFF">wordly</tspan>
      </text>
    </g>
    <g>
      <path d="M102.101,147.671 C110.385,147.671 117.101,154.387 117.101,162.671 C117.101,170.955 110.385,177.671 102.101,177.671 C93.816,177.671 87.101,170.955 87.101,162.671 C87.101,154.387 93.816,147.671 102.101,147.671 z" clip-path="url(#Clip_3)" filter="url(#Shadow_4)" fill="rgba(0,0,0,0.1)"/>
      <path d="M102.101,177.671 C93.816,177.671 87.101,170.955 87.101,162.671 C87.101,154.387 93.816,147.671 102.101,147.671 C110.385,147.671 117.101,154.387 117.101,162.671 C117.101,170.955 110.385,177.671 102.101,177.671 z" fill="#D16666"/>
    </g>
    <g>
      <path d="M175,147.671 C183.284,147.671 190,154.387 190,162.671 C190,170.955 183.284,177.671 175,177.671 C166.716,177.671 160,170.955 160,162.671 C160,154.387 166.716,147.671 175,147.671 z" clip-path="url(#Clip_5)" filter="url(#Shadow_6)" fill="rgba(0,0,0,0.1)"/>
      <path d="M175,177.671 C166.716,177.671 160,170.955 160,162.671 C160,154.387 166.716,147.671 175,147.671 C183.284,147.671 190,154.387 190,162.671 C190,170.955 183.284,177.671 175,177.671 z" fill="#3BC66E"/>
    </g>
    <g>
      <path d="M247.899,147.671 C256.184,147.671 262.899,154.387 262.899,162.671 C262.899,170.955 256.184,177.671 247.899,177.671 C239.615,177.671 232.899,170.955 232.899,162.671 C232.899,154.387 239.615,147.671 247.899,147.671 z" clip-path="url(#Clip_7)" filter="url(#Shadow_8)" fill="rgba(0,0,0,0.1)"/>
      <path d="M247.899,177.671 C239.615,177.671 232.899,170.955 232.899,162.671 C232.899,154.387 239.615,147.671 247.899,147.671 C256.184,147.671 262.899,154.387 262.899,162.671 C262.899,170.955 256.184,177.671 247.899,177.671 z" fill="#357DED"/>
    </g>
  </g>
</svg>
