<?xml version="1.0" encoding="UTF-8"?>
<!DOCTYPE svg PUBLIC "-//W3C//DTD SVG 1.1//EN" "http://www.w3.org/Graphics/SVG/1.1/DTD/svg11.dtd">
<svg version="1.1" xmlns="http://www.w3.org/2000/svg" xmlns:xlink="http://www.w3.org/1999/xlink" x="0" y="0" width="700" height="400" viewBox="0, 0, 350, 200">
  <g id="Layer_1">
    <text transform="matrix(1, 0, 0, 1, 175, 73.329)">
      <tspan x="-139.5" y="33" font-family="Ubuntu-Regular" font-size="90" fill="#6C6C6C">wordly</tspan>
    </text>
    <path d="M102.101,177.671 C93.816,177.671 87.101,170.955 87.101,162.671 C87.101,154.387 93.816,147.671 102.101,147.671 C110.385,147.671 117.101,154.387 117.101,162.671 C117.101,170.955 110.385,177.671 102.101,177.671 z" fill="#D16666"/>
    <path d="M175,177.671 C166.716,177.671 160,170.955 160,162.671 C160,154.387 166.716,147.671 175,147.671 C183.284,147.671 190,154.387 190,162.671 C190,170.955 183.284,177.671 175,177.671 z" fill="#3BC66E"/>
    <path d="M247.899,177.671 C239.615,177.671 232.899,170.955 232.899,162.671 C232.899,154.387 239.615,147.671 247.899,147.671 C256.184,147.671 262.899,154.387 262.899,162.671 C262.899,170.955 256.184,177.671 247.899,177.671 z" fill="#357DED"/>
  </g>
</svg>
