<?xml version="1.0" encoding="UTF-8"?>
<!DOCTYPE svg PUBLIC "-//W3C//DTD SVG 1.1//EN" "http://www.w3.org/Graphics/SVG/1.1/DTD/svg11.dtd">
<svg version="1.1" xmlns="http://www.w3.org/2000/svg" xmlns:xlink="http://www.w3.org/1999/xlink" x="0" y="0" width="3500" height="2000" viewBox="0, 0, 700, 400">
  <g id="Layer_1">
    <text transform="matrix(2, 0, 0, 2, 351, 146.658)">
      <tspan x="-140" y="33" font-family="Ubuntu-Regular" font-size="90" fill="#6C6C6C">wordly</tspan>
    </text>
    <path d="M204.202,355.342 C187.632,355.342 174.202,341.91 174.202,325.342 C174.202,308.774 187.632,295.342 204.202,295.342 C220.77,295.342 234.202,308.774 234.202,325.342 C234.202,341.91 220.77,355.342 204.202,355.342 z" fill="#D16666"/>
    <path d="M350,355.342 C333.432,355.342 320,341.91 320,325.342 C320,308.774 333.432,295.342 350,295.342 C366.568,295.342 380,308.774 380,325.342 C380,341.91 366.568,355.342 350,355.342 z" fill="#3BC66E"/>
    <path d="M495.798,355.342 C479.23,355.342 465.798,341.91 465.798,325.342 C465.798,308.774 479.23,295.342 495.798,295.342 C512.368,295.342 525.798,308.774 525.798,325.342 C525.798,341.91 512.368,355.342 495.798,355.342 z" fill="#357DED"/>
  </g>
</svg>
